<svg width="146" height="54" viewBox="0 0 146 54" fill="none" xmlns="http://www.w3.org/2000/svg">
<g clip-path="url(#clip0_39_570)">
<path d="M20.1555 46.4532C31.1391 46.4532 40.0432 37.5492 40.0432 26.5655C40.0432 15.5818 31.1391 6.67773 20.1555 6.67773C9.17179 6.67773 0.267761 15.5818 0.267761 26.5655C0.267761 37.5492 9.17179 46.4532 20.1555 46.4532Z" fill="#AC6AFF"/>
<path d="M30.341 19.604L31.708 20.5142L32.1638 19.8299L31.8891 19.0551L30.341 19.604ZM32.3142 25.1689L33.8622 24.6201L33.5877 23.8457L32.8032 23.6011L32.3142 25.1689ZM9.91735 33.3787L8.57347 32.4346L8.08608 33.1284L8.36944 33.9275L9.91735 33.3787ZM7.90774 27.7112L6.35986 28.2601L6.64313 29.059L7.45843 29.2909L7.90774 27.7112ZM7.8043 20.8765C5.81119 21.5832 4.76839 23.7718 5.4751 25.7649L8.57093 24.6672C8.47046 24.3839 8.61869 24.0728 8.90202 23.9723L7.8043 20.8765ZM26.1639 14.3665L7.8043 20.8765L8.90202 23.9723L27.2617 17.4623L26.1639 14.3665ZM31.0523 16.6957C30.3457 14.7026 28.157 13.6597 26.1639 14.3665L27.2617 17.4623C27.545 17.3618 27.8561 17.51 27.9566 17.7934L31.0523 16.6957ZM31.8891 19.0551L31.0523 16.6957L27.9566 17.7934L28.7932 20.1528L31.8891 19.0551ZM31.367 21.6462C31.367 21.2248 31.4926 20.8378 31.708 20.5142L28.9741 18.6937C28.4107 19.5397 28.0825 20.5571 28.0825 21.6462H31.367ZM32.8032 23.6011C31.9693 23.341 31.367 22.5618 31.367 21.6462H28.0825C28.0825 24.0397 29.6584 26.0609 31.8254 26.7368L32.8032 23.6011ZM34.8362 27.3668L33.8622 24.6201L30.7664 25.7178L31.7404 28.4645L34.8362 27.3668ZM32.5069 32.2552C34.5002 31.5485 35.5428 29.3599 34.8362 27.3668L31.7404 28.4645C31.8409 28.7478 31.6926 29.0589 31.4093 29.1594L32.5069 32.2552ZM14.1473 38.7653L32.5069 32.2552L31.4093 29.1594L13.0496 35.6694L14.1473 38.7653ZM9.2589 36.436C9.96561 38.429 12.1542 39.4719 14.1473 38.7653L13.0496 35.6694C12.7663 35.7698 12.4552 35.6216 12.3547 35.3383L9.2589 36.436ZM8.36944 33.9275L9.2589 36.436L12.3547 35.3383L11.4652 32.8298L8.36944 33.9275ZM8.94339 31.2603C8.94339 31.6998 8.80672 32.1026 8.57347 32.4346L11.2612 34.3227C11.8703 33.4558 12.2281 32.3973 12.2281 31.2603H8.94339ZM7.45843 29.2909C8.31706 29.5351 8.94339 30.3267 8.94339 31.2603H12.2281C12.2281 28.8201 10.5902 26.7667 8.35709 26.1315L7.45843 29.2909ZM5.4751 25.7649L6.35986 28.2601L9.45566 27.1623L8.57093 24.6672L5.4751 25.7649Z" fill="white"/>
<path d="M15.834 25.3804L20.8638 27.9725L22.992 22.9272" stroke="white" stroke-width="3" stroke-linecap="round"/>
</g>
<path d="M69.1558 39.8365L61.2382 40.0319L58.0316 33.4136L56.484 33.4518L56.7396 40.1429L49.5418 40.3205L48.683 17.8369L60.0196 17.5572C65.178 17.4299 67.8575 19.9923 68.0581 25.2445C68.1955 28.8419 67.1706 31.2437 64.9832 32.4499L69.1558 39.8365ZM56.1007 23.4151L56.2724 27.9118L57.9279 27.871C58.7917 27.8496 59.4123 27.7503 59.7897 27.573C60.1903 27.371 60.3782 26.9463 60.3535 26.2988L60.2971 24.8239C60.2724 24.1763 60.0529 23.7737 59.6386 23.6159C59.2474 23.4335 58.6199 23.3529 57.7562 23.3742L56.1007 23.4151ZM74.3676 39.3119L75.1485 33.3513C77.3769 33.8485 79.3669 34.0754 81.1183 34.0322C82.8938 33.9884 84.3186 33.8812 85.3928 33.7107L85.3241 31.912L82.0741 31.7041C79.1369 31.5125 77.0949 30.8668 75.9482 29.7668C74.8246 28.6423 74.2202 26.9649 74.135 24.7345C74.0177 21.6647 74.5969 19.538 75.8725 18.3543C77.1722 17.1699 79.4175 16.5384 82.6085 16.4597C85.7995 16.381 88.6901 16.6097 91.2802 17.1459L90.6004 22.9239C88.3553 22.6192 86.561 22.4835 85.2174 22.5166C83.8738 22.5498 82.7364 22.6379 81.8053 22.7809L81.8726 24.5436L84.4735 24.7314C87.6284 24.9657 89.8286 25.6675 91.074 26.8371C92.3186 27.9826 92.9811 29.6106 93.0617 31.7211C93.1194 33.232 92.9645 34.5201 92.5969 35.5854C92.2285 36.6267 91.7668 37.4302 91.2121 37.996C90.6804 38.5373 89.9042 38.9645 88.8835 39.2778C87.8628 39.591 86.9575 39.7814 86.1676 39.8489C85.4026 39.9398 84.3723 40.0012 83.0767 40.0332C79.9576 40.1101 77.0546 39.8697 74.3676 39.3119ZM111.066 16.2977L118.66 16.1103L113.94 38.7315L103.431 38.9908L96.9941 16.6449L104.588 16.4575L108.192 30.6636L108.516 30.6556L111.066 16.2977ZM136.57 32.736L131.891 32.8514L132.099 38.2835L124.901 38.4611L124.042 15.9775L135.379 15.6978C140.537 15.5705 143.222 18.2768 143.434 23.8168C143.55 26.8626 142.964 29.1335 141.677 30.6296C141.194 31.1936 140.516 31.6784 139.643 32.0841C138.77 32.4897 137.745 32.707 136.57 32.736ZM131.46 21.5557L131.671 27.0956L133.327 27.0548C134.191 27.0335 134.811 26.9341 135.189 26.7568C135.589 26.5549 135.777 26.1301 135.752 25.4826L135.656 22.9645C135.631 22.3169 135.412 21.9143 134.998 21.7564C134.606 21.5741 133.979 21.4935 133.115 21.5148L131.46 21.5557Z" fill="#FAFAFA"/>
<defs>
<clipPath id="clip0_39_570">
<rect width="40.292" height="40" fill="white" transform="translate(0 6.67773)"/>
</clipPath>
</defs>
</svg>
