<svg width="212" height="215" viewBox="0 0 212 215" fill="none" xmlns="http://www.w3.org/2000/svg">
<path d="M68.2912 208.985C83.1479 217.94 93.7466 214.223 97.8042 207.042C105.651 193.155 131.741 164.758 173.087 155.16C227.847 142.448 216.412 108.696 182.748 90.9843C149.085 73.2726 123.914 48.7652 127.724 22.1177C131.533 -4.52974 93.7879 -13.716 77.0019 37.5448C66.1544 70.6714 46.715 79.5461 34.3188 81.6795C22.6357 83.69 9.85581 86.2127 3.62371 96.2971C-3.93853 108.533 -1.29967 120.911 30.3617 129.4C75.2291 141.43 34.991 188.913 68.2912 208.985Z" fill="#BDA2F4"/>
<path d="M29.6905 150.924C30.3193 150.564 37.4156 147.56 72.7186 164.018C72.6157 164.158 72.572 164.224 72.572 164.224C72.572 164.224 35.8711 176.584 28.6803 161.358C26.533 156.825 27.1483 153.703 29.6292 150.959L29.6905 150.924Z" fill="#0E84E5"/>
<path d="M148.347 157.152C140.677 163.6 128.649 168.28 117.043 162.057C118.877 160.885 120.771 159.678 122.703 158.429C134.359 150.94 144.625 155.951 148.347 157.152Z" fill="#0E84E5"/>
<path d="M162.085 77.8489C169.921 143.101 151.298 154.943 149.225 156.742C148.625 157.263 148.382 157.225 147.474 156.991L147.459 157C143.618 155.982 134.358 150.94 122.703 158.428C120.771 159.677 118.876 160.884 117.042 162.056C105.152 169.597 95.5502 174.911 88.6327 171.827C82.7651 168.833 77.4747 166.243 72.7184 164.018C37.4155 147.56 30.3192 150.564 29.6904 150.924C30.42 150.527 37.1124 146.817 46.1236 140.293C46.1543 140.276 46.185 140.258 46.1915 140.234C58.2363 131.505 74.3667 117.749 85.9612 100.054C93.8542 88.0214 101.576 57.5171 116.475 51.5318C147.094 40.1092 160.813 64.5763 162.085 77.8489Z" fill="#AC6AFF"/>
<path d="M128.228 76.7041C129.179 74.1943 129.086 71.8329 128.021 71.4297C126.956 71.0264 125.323 72.7341 124.372 75.2439C123.422 77.7536 123.515 80.1151 124.579 80.5183C125.644 80.9215 127.278 79.2139 128.228 76.7041Z" fill="white"/>
<path d="M147.724 79.9063C148.398 77.3085 148.051 74.9709 146.949 74.6851C145.846 74.3994 144.407 76.2736 143.733 78.8715C143.06 81.4693 143.407 83.8069 144.509 84.0927C145.611 84.3784 147.051 82.5042 147.724 79.9063Z" fill="white"/>
<path d="M135.856 89.4446C135.697 89.4445 135.542 89.3897 135.418 89.2894C135.293 89.1891 135.207 89.0494 135.173 88.8933C135.048 88.3283 134.493 86.6564 133.613 86.4079C132.732 86.1594 131.006 87.1241 130.307 87.6302C130.157 87.7391 129.969 87.7838 129.786 87.7545C129.602 87.7252 129.438 87.6242 129.329 87.4738C129.22 87.3235 129.176 87.136 129.205 86.9526C129.234 86.7693 129.335 86.6051 129.486 86.4962C129.761 86.2969 132.227 84.5621 133.993 85.0604C135.835 85.5801 136.474 88.2884 136.541 88.5955C136.563 88.6978 136.562 88.8037 136.538 88.9056C136.514 89.0074 136.468 89.1026 136.402 89.184C136.336 89.2655 136.253 89.3312 136.159 89.3763C136.064 89.4214 135.961 89.4447 135.856 89.4446H135.856Z" fill="white"/>
</svg>
