<svg width="219" height="188" viewBox="0 0 219 188" fill="none" xmlns="http://www.w3.org/2000/svg">
<path d="M70.2124 23.9959C94.3295 35.3845 113.958 31.5367 127.551 24.824C134.34 21.4714 139.619 17.4075 143.2 14.1819C144.992 12.5686 146.36 11.1639 147.282 10.1606C147.743 9.65891 148.092 9.25749 148.327 8.98043C148.445 8.8419 148.534 8.73444 148.594 8.66108C148.624 8.6244 148.646 8.59624 148.662 8.57698L148.668 8.56961C155.712 1.48753 163.1 -0.211917 169.984 1.56735C176.914 3.35818 183.418 8.69577 188.577 15.851C193.731 22.9994 197.505 31.9125 198.998 40.7651C200.492 49.6221 199.696 58.3684 195.779 65.2247C191.761 72.2558 190.032 77.8012 190.002 83.0159C189.971 88.2274 191.638 93.0464 194.287 98.6118C195.523 101.21 196.977 103.977 198.582 107.034C203.857 117.077 210.773 130.243 217.032 150.807C219.327 158.351 218.484 164.577 215.155 169.295C211.816 174.028 205.913 177.333 197.915 178.887C181.911 181.998 157.732 178.048 129.873 164.852C123.365 161.769 116.726 162.866 110.009 165.738C104.981 167.888 99.8436 171.063 94.6319 174.284C92.9027 175.352 91.1653 176.426 89.421 177.469C82.3864 181.675 75.2152 185.4 67.8449 186.482C60.5085 187.559 52.9416 186.021 45.0844 179.619C38.1632 173.98 35.5037 168.526 34.7218 162.95C34.0892 158.438 34.6778 153.841 35.3086 148.914C35.4653 147.69 35.6246 146.446 35.7684 145.178C36.4877 138.836 36.7995 131.983 34.3111 124.364C31.8226 116.743 26.5503 108.405 16.1868 99.0442C5.96318 89.81 1.28575 79.1165 0.731598 68.6285C0.176986 58.1319 3.75099 47.8043 10.0959 39.317C22.7888 22.3381 46.5017 12.7991 70.2124 23.9959Z" fill="#DEE9FF" fill-opacity="0.1" stroke="black"/>
<path d="M131.989 114.156L129.623 126.859L118.353 187.244L98.0522 183.454L111.069 113.699L111.688 110.375L131.989 114.156Z" fill="url(#paint0_linear_64_193)"/>
<path d="M111.56 113.79L112.088 110.958L131.406 114.556L129.131 126.768L129.131 126.768L117.953 186.661L98.6355 183.054L111.56 113.79L111.56 113.79Z" stroke="black" stroke-opacity="0.42"/>
<path d="M181.984 83.7782L174.984 121.307C174.964 121.417 174.922 121.522 174.861 121.615C174.8 121.709 174.721 121.79 174.628 121.853C174.536 121.916 174.432 121.961 174.323 121.984C174.213 122.007 174.1 122.008 173.99 121.988L75.6455 103.646L87.2207 41.5835L161.9 55.5121C175.435 58.036 184.426 70.6887 181.984 83.7782Z" fill="url(#paint1_linear_64_193)"/>
<path d="M174.346 121.441L174.628 121.853L174.346 121.441C174.308 121.467 174.265 121.485 174.22 121.495C174.174 121.504 174.128 121.505 174.082 121.496L174.082 121.496L76.2287 103.246L87.6205 42.1667L161.808 56.0036L161.9 55.5121L161.808 56.0036C175.088 58.4799 183.881 70.8838 181.493 83.6866L174.493 121.215C174.484 121.26 174.467 121.304 174.442 121.342C174.417 121.381 174.384 121.415 174.346 121.441Z" stroke="black" stroke-opacity="0.42"/>
<path d="M108.226 71.1841L101.281 108.421L49.6592 98.7933L56.6043 61.5561C59.1614 47.846 72.7907 38.8867 87.0453 41.5453C101.3 44.2039 110.783 57.4736 108.226 71.1841Z" fill="url(#paint2_linear_64_193)"/>
<path d="M107.735 71.0924L100.881 107.838L50.2424 98.3935L57.0958 61.6478C59.599 48.227 72.9522 39.4254 86.9536 42.0368C100.955 44.6481 110.238 57.6713 107.735 71.0924Z" stroke="black" stroke-opacity="0.42"/>
<path d="M132.258 88.5911C128.454 87.8816 125.944 84.1845 126.661 80.3451C127.377 76.5058 131.05 73.9611 134.855 74.6711C136.067 74.8989 137.198 75.4438 138.132 76.2503C139.065 77.0569 139.769 78.0964 140.17 79.2631L188.223 88.2253L186.924 95.1856L138.872 86.2233C138.077 87.167 137.046 87.8832 135.885 88.2991C134.723 88.715 133.472 88.8158 132.258 88.5911Z" fill="url(#paint3_linear_64_193)"/>
<path d="M187.639 88.6252L186.525 94.6024L138.964 85.7318L138.678 85.6784L138.49 85.9011C137.752 86.7772 136.795 87.4422 135.716 87.8283C134.638 88.2144 133.476 88.308 132.35 88.0996C128.822 87.4414 126.486 84.0089 127.152 80.4368C127.819 76.8646 131.234 74.5043 134.763 75.1625C135.888 75.374 136.938 75.8799 137.805 76.6287C138.672 77.3776 139.325 78.3427 139.698 79.4258L139.792 79.7012L140.079 79.7546L187.639 88.6252Z" stroke="black" stroke-opacity="0.42"/>
<path d="M106.513 71.8684L99.7466 108.149L51.1172 99.0787L57.8844 62.7984C60.3757 49.4407 73.2819 40.642 86.7104 43.1466C100.139 45.6512 109.005 58.5106 106.513 71.8684Z" fill="url(#paint4_linear_64_193)"/>
<path d="M106.022 71.7768L99.3468 107.565L51.7004 98.6788L58.3759 62.8901L57.8844 62.7984L58.3759 62.8901C60.8161 49.8063 73.4592 41.1837 86.6187 43.6381C99.7782 46.0925 108.462 58.6928 106.022 71.7768Z" stroke="black" stroke-opacity="0.42"/>
<path d="M133.621 85.0752C135.576 85.0752 137.161 83.4902 137.161 81.5351C137.161 79.5799 135.576 77.9949 133.621 77.9949C131.666 77.9949 130.081 79.5799 130.081 81.5351C130.081 83.4902 131.666 85.0752 133.621 85.0752Z" fill="white"/>
<path d="M136.661 81.5351C136.661 83.2141 135.3 84.5752 133.621 84.5752C131.942 84.5752 130.581 83.2141 130.581 81.5351C130.581 79.856 131.942 78.4949 133.621 78.4949C135.3 78.4949 136.661 79.856 136.661 81.5351Z" stroke="black" stroke-opacity="0.42"/>
<mask id="path-14-inside-1_64_193" fill="white">
<path d="M188.778 88.2006L184.533 110.959C184.515 111.057 184.458 111.144 184.376 111.2C184.294 111.256 184.193 111.278 184.095 111.259L172.937 109.178C172.917 109.175 172.9 109.164 172.889 109.147C172.878 109.131 172.874 109.111 172.877 109.092L177.177 86.037C177.181 86.0177 177.192 86.0006 177.208 85.9894C177.225 85.9783 177.245 85.9741 177.264 85.9777L188.719 88.1141C188.738 88.1177 188.755 88.1288 188.766 88.1451C188.777 88.1613 188.782 88.1813 188.778 88.2006Z"/>
</mask>
<path d="M188.778 88.2006L184.533 110.959C184.515 111.057 184.458 111.144 184.376 111.2C184.294 111.256 184.193 111.278 184.095 111.259L172.937 109.178C172.917 109.175 172.9 109.164 172.889 109.147C172.878 109.131 172.874 109.111 172.877 109.092L177.177 86.037C177.181 86.0177 177.192 86.0006 177.208 85.9894C177.225 85.9783 177.245 85.9741 177.264 85.9777L188.719 88.1141C188.738 88.1177 188.755 88.1288 188.766 88.1451C188.777 88.1613 188.782 88.1813 188.778 88.2006Z" fill="url(#paint5_linear_64_193)"/>
<path d="M184.533 110.959L185.516 111.142L184.533 110.959ZM172.937 109.178L173.12 108.195L172.937 109.178ZM177.177 86.037L178.16 86.2204L177.177 86.037ZM188.719 88.1141L188.902 87.131L188.719 88.1141ZM187.795 88.0173L183.55 110.775L185.516 111.142L189.761 88.384L187.795 88.0173ZM183.55 110.775C183.58 110.613 183.674 110.469 183.811 110.375L184.942 112.025C185.243 111.818 185.449 111.501 185.516 111.142L183.55 110.775ZM183.811 110.375C183.947 110.281 184.115 110.246 184.278 110.276L183.911 112.242C184.27 112.309 184.641 112.231 184.942 112.025L183.811 110.375ZM184.278 110.276L173.12 108.195L172.753 110.161L183.911 112.242L184.278 110.276ZM173.12 108.195C173.362 108.24 173.575 108.379 173.714 108.582L172.064 109.713C172.225 109.948 172.473 110.109 172.753 110.161L173.12 108.195ZM173.714 108.582C173.853 108.784 173.906 109.034 173.86 109.275L171.894 108.908C171.842 109.189 171.903 109.478 172.064 109.713L173.714 108.582ZM173.86 109.275L178.16 86.2204L176.194 85.8537L171.894 108.908L173.86 109.275ZM178.16 86.2204C178.115 86.462 177.976 86.6755 177.774 86.8142L176.643 85.1647C176.408 85.3256 176.247 85.5734 176.194 85.8537L178.16 86.2204ZM177.774 86.8142C177.572 86.9529 177.322 87.0058 177.081 86.9607L177.447 84.9946C177.167 84.9424 176.878 85.0037 176.643 85.1647L177.774 86.8142ZM177.081 86.9607L188.535 89.0971L188.902 87.131L177.447 84.9946L177.081 86.9607ZM188.535 89.0971C188.294 89.0521 188.08 88.9129 187.941 88.7105L189.591 87.5796C189.43 87.3448 189.182 87.1833 188.902 87.131L188.535 89.0971ZM187.941 88.7105C187.802 88.508 187.75 88.2586 187.795 88.0173L189.761 88.384C189.813 88.104 189.752 87.8146 189.591 87.5796L187.941 88.7105Z" fill="black" fill-opacity="0.42" mask="url(#path-14-inside-1_64_193)"/>
<path d="M67.2101 86.0595C67.68 89.5159 71.4728 93.6242 71.4728 93.6242C65.6934 94.0339 62.5634 90.7654 61.2166 88.7794C59.5514 89.2606 57.8401 89.5643 56.1111 89.6855C44.2459 90.5265 34.0318 82.7801 33.2942 72.3748C32.5565 61.9694 41.576 52.8596 53.4411 52.0188C65.3063 51.1779 75.5197 58.9238 76.2572 69.3293C76.737 76.0976 73.0848 82.3188 67.2101 86.0595Z" fill="white"/>
<path d="M66.9416 85.6377L66.6716 85.8097L66.7147 86.1268C66.9664 87.9786 68.0915 89.9518 69.1061 91.422C69.587 92.1188 70.0542 92.7183 70.4152 93.159C65.5302 93.1276 62.8386 90.2804 61.6304 88.4988L61.4266 88.1983L61.0778 88.2991C59.4465 88.7704 57.77 89.068 56.0761 89.1867L56.0757 89.1867C44.4223 90.0127 34.5068 82.4097 33.7929 72.3394C33.079 62.2692 41.8231 53.3434 53.4765 52.5175C65.1299 51.6917 75.0447 59.2943 75.7584 69.3647C76.2232 75.9208 72.6877 81.9789 66.9416 85.6377Z" stroke="black" stroke-opacity="0.42"/>
<path d="M101.331 108.444C100.794 109.804 90.9681 150.32 59.1715 144.389C24.3046 138.486 49.5247 98.7817 49.5247 98.7817L101.331 108.444Z" fill="url(#paint6_linear_64_193)"/>
<path d="M49.6781 99.4873C49.7116 99.4318 49.7422 99.3813 49.7698 99.3361L100.687 108.833C100.673 108.879 100.659 108.928 100.643 108.98C99.8638 111.607 97.2064 120.565 91.56 128.869C85.1201 138.341 74.8873 146.812 59.2632 143.898L59.2632 143.898L59.255 143.896C50.6434 142.438 45.8369 138.914 43.3914 134.529C40.9332 130.121 40.8014 124.74 41.7649 119.462C42.7272 114.19 44.7702 109.087 46.5801 105.293C47.484 103.398 48.3273 101.835 48.9441 100.746C49.2525 100.201 49.5041 99.7759 49.6781 99.4873Z" stroke="black" stroke-opacity="0.42"/>
<path d="M54.7753 74.4216C56.4046 74.4216 57.7254 73.1008 57.7254 71.4716C57.7254 69.8423 56.4046 68.5215 54.7753 68.5215C53.146 68.5215 51.8252 69.8423 51.8252 71.4716C51.8252 73.1008 53.146 74.4216 54.7753 74.4216Z" fill="url(#paint7_linear_64_193)"/>
<path d="M57.2254 71.4716C57.2254 72.8247 56.1284 73.9216 54.7753 73.9216C53.4221 73.9216 52.3252 72.8247 52.3252 71.4716C52.3252 70.1184 53.4221 69.0215 54.7753 69.0215C56.1284 69.0215 57.2254 70.1184 57.2254 71.4716Z" stroke="black" stroke-opacity="0.42"/>
<path d="M41.5685 73.1352C43.2076 73.1352 44.5363 71.8064 44.5363 70.1673C44.5363 68.5282 43.2076 67.1995 41.5685 67.1995C39.9293 67.1995 38.6006 68.5282 38.6006 70.1673C38.6006 71.8064 39.9293 73.1352 41.5685 73.1352Z" fill="url(#paint8_linear_64_193)"/>
<path d="M44.0363 70.1673C44.0363 71.5303 42.9314 72.6352 41.5685 72.6352C40.2055 72.6352 39.1006 71.5303 39.1006 70.1673C39.1006 68.8044 40.2055 67.6995 41.5685 67.6995C42.9314 67.6995 44.0363 68.8044 44.0363 70.1673Z" stroke="black" stroke-opacity="0.42"/>
<path d="M67.8561 75.6789C69.4952 75.6789 70.8239 74.3501 70.8239 72.711C70.8239 71.0719 69.4952 69.7432 67.8561 69.7432C66.2169 69.7432 64.8882 71.0719 64.8882 72.711C64.8882 74.3501 66.2169 75.6789 67.8561 75.6789Z" fill="url(#paint9_linear_64_193)"/>
<path d="M70.3239 72.711C70.3239 74.074 69.219 75.1789 67.8561 75.1789C66.4931 75.1789 65.3882 74.074 65.3882 72.711C65.3882 71.3481 66.4931 70.2432 67.8561 70.2432C69.219 70.2432 70.3239 71.3481 70.3239 72.711Z" stroke="black" stroke-opacity="0.42"/>
<path d="M131.989 114.156L129.623 126.859L111.069 113.699L111.688 110.375L131.989 114.156Z" fill="url(#paint10_linear_64_193)"/>
<path d="M112.088 110.958L131.406 114.556L129.274 125.999L111.619 113.476L112.088 110.958Z" stroke="black" stroke-opacity="0.42"/>
<defs>
<linearGradient id="paint0_linear_64_193" x1="115.02" y1="110.375" x2="115.02" y2="187.244" gradientUnits="userSpaceOnUse">
<stop stop-color="#4D4D4D"/>
<stop offset="1" stop-color="#323232"/>
</linearGradient>
<linearGradient id="paint1_linear_64_193" x1="129.015" y1="41.5835" x2="129.015" y2="122.002" gradientUnits="userSpaceOnUse">
<stop stop-color="#4D4D4D"/>
<stop offset="1" stop-color="#323232"/>
</linearGradient>
<linearGradient id="paint2_linear_64_193" x1="79.1508" y1="41.0781" x2="79.1508" y2="108.421" gradientUnits="userSpaceOnUse">
<stop stop-color="#4D4D4D"/>
<stop offset="1" stop-color="#323232"/>
</linearGradient>
<linearGradient id="paint3_linear_64_193" x1="157.381" y1="74.5522" x2="157.381" y2="95.1856" gradientUnits="userSpaceOnUse">
<stop stop-color="#4D4D4D"/>
<stop offset="1" stop-color="#323232"/>
</linearGradient>
<linearGradient id="paint4_linear_64_193" x1="79.0249" y1="42.7207" x2="79.0249" y2="108.149" gradientUnits="userSpaceOnUse">
<stop stop-color="#4D4D4D"/>
<stop offset="1" stop-color="#323232"/>
</linearGradient>
<linearGradient id="paint5_linear_64_193" x1="186.628" y1="99.728" x2="175.027" y2="97.5644" gradientUnits="userSpaceOnUse">
<stop stop-color="#4D4D4D"/>
<stop offset="1" stop-color="#323232"/>
</linearGradient>
<linearGradient id="paint6_linear_64_193" x1="71.0193" y1="98.7817" x2="71.0193" y2="144.982" gradientUnits="userSpaceOnUse">
<stop stop-color="#4D4D4D"/>
<stop offset="1" stop-color="#323232"/>
</linearGradient>
<linearGradient id="paint7_linear_64_193" x1="54.7753" y1="68.5215" x2="54.7753" y2="74.4216" gradientUnits="userSpaceOnUse">
<stop stop-color="#4D4D4D"/>
<stop offset="1" stop-color="#323232"/>
</linearGradient>
<linearGradient id="paint8_linear_64_193" x1="41.5685" y1="67.1995" x2="41.5685" y2="73.1352" gradientUnits="userSpaceOnUse">
<stop stop-color="#4D4D4D"/>
<stop offset="1" stop-color="#323232"/>
</linearGradient>
<linearGradient id="paint9_linear_64_193" x1="67.856" y1="69.7432" x2="67.856" y2="75.6789" gradientUnits="userSpaceOnUse">
<stop stop-color="#4D4D4D"/>
<stop offset="1" stop-color="#323232"/>
</linearGradient>
<linearGradient id="paint10_linear_64_193" x1="121.529" y1="110.375" x2="121.529" y2="126.859" gradientUnits="userSpaceOnUse">
<stop stop-color="#4D4D4D"/>
<stop offset="1" stop-color="#323232"/>
</linearGradient>
</defs>
</svg>
